<svg width="81" height="65" viewBox="0 0 81 65" fill="none" xmlns="http://www.w3.org/2000/svg">
<path d="M70.0255 41.6528C69.6349 38.9431 67.5393 36.8306 64.8415 36.2009C54.3554 33.7472 51.7267 27.7184 51.2832 21.0316C49.4236 20.6863 46.1154 20.3125 40.5 20.3125C34.8846 20.3125 31.5765 20.6863 29.7169 21.0316C29.2733 27.7184 26.6447 33.7472 16.1586 36.2009C13.4608 36.8347 11.3652 38.9431 10.9745 41.6528L8.95218 55.6359C8.24009 60.5597 11.8616 65 16.8992 65H64.1009C69.1344 65 72.76 60.5597 72.0479 55.6359L70.0255 41.6528ZM40.5 54.8112C34.8236 54.8112 30.2214 50.2612 30.2214 44.655C30.2214 39.0487 34.8236 34.4987 40.5 34.4987C46.1764 34.4987 50.7786 39.0487 50.7786 44.655C50.7786 50.2612 46.1724 54.8112 40.5 54.8112ZM80.9877 16.25C80.8901 10.1562 65.3542 0.0040625 40.5 0C15.6418 0.0040625 0.105926 10.1562 0.0123359 16.25C-0.0812538 22.3438 0.0977869 30.2738 10.3275 28.9534C22.2948 27.4056 21.5583 23.2334 21.5583 17.2697C21.5583 13.1097 31.2916 12.1062 40.5 12.1062C49.7084 12.1062 59.4377 13.1097 59.4418 17.2697C59.4418 23.2334 58.7052 27.4056 70.6725 28.9534C80.8982 30.2738 81.0813 22.3438 80.9877 16.25Z" fill="#219653"/>
</svg>
